<?xml version="1.0" encoding="UTF-8"?>
<svg width="116px" height="37px" viewBox="0 0 116 37" version="1.1" xmlns="http://www.w3.org/2000/svg" xmlns:xlink="http://www.w3.org/1999/xlink">
    <!-- Generator: sketchtool 57.1 (101010) - https://sketch.com -->
    <title>09DBF0E0-D696-4691-8C77-F5C699D294D6</title>
    <desc>Created with sketchtool.</desc>
    <defs>
        <polygon id="path-1" points="0 0.0501999999 35.9033546 0.0501999999 35.9033546 36.9999611 0 36.9999611"></polygon>
    </defs>
    <g id="Asset-Artboard-Page" stroke="none" stroke-width="1" fill="none" fill-rule="evenodd">
        <g id="Logo/orange-Copy-2">
            <g id="Group-18">
                <g id="Group-3">
                    <mask id="mask-2" fill="white">
                        <use xlink:href="#path-1"></use>
                    </mask>
                    <g id="Clip-2"></g>
                    <path d="M15.0139883,36.999958 L11.3220322,36.999958 C9.40296199,36.999958 7.84734446,35.4505581 7.84734446,33.5389582 L7.84734446,16.6867591 C4.78711325,14.8423592 1.96965235,12.4165593 -2.0080258e-05,9.53055949 L2.73450935,7.67915959 C4.05920392,9.62015948 5.87365597,11.3481594 7.90136035,12.7893593 C8.56762329,5.22875972 15.3067584,-0.623839963 23.2183798,0.112759997 C29.9826152,0.742759963 35.3809916,6.24895967 35.8665322,12.9983593 C36.4532773,21.1629589 29.9500852,27.9941585 21.8752114,27.9941585 L21.8752114,24.7005587 C28.1906531,24.7005587 33.2486691,19.233359 32.5279887,12.8011593 C31.9795968,7.90235958 28.0193685,3.95795979 23.1007095,3.41195982 C16.6424971,2.69435986 11.1537596,7.73195959 11.1537596,14.0217592 L11.1537596,14.7709592 C12.4913056,15.4641592 13.8555582,16.0345591 15.18206,16.4641591 L15.18206,14.9165592 C15.18206,10.5353594 18.0179948,7.35595961 21.9252112,7.35595961 C25.5882517,7.35595961 28.5681619,10.3461594 28.5681619,14.0217592 C28.5681619,18.009159 25.2766062,20.6879589 20.3780274,20.6879589 C19.7786317,20.6879589 19.1461036,20.6473589 18.4888768,20.5675589 L18.4888768,33.5389582 C18.4888768,35.4505581 16.9330585,36.999958 15.0139883,36.999958 L15.0139883,36.999958 Z M12.4979326,33.7065595 L13.8382898,33.7065595 C14.580657,33.7065595 15.1820607,33.1075595 15.1820607,32.3681595 L15.1820607,19.8905595 C13.8653982,19.5209595 12.5071695,19.0269595 11.1537601,18.4185595 L11.1537601,32.3681595 C11.1537601,33.1075595 11.7553646,33.7065595 12.4979326,33.7065595 L12.4979326,33.7065595 Z M18.4888768,17.25096 C19.1497181,17.34596 19.7830495,17.39476 20.3780276,17.39476 C22.7390644,17.39476 25.2615465,16.50876 25.2615465,14.0217599 C25.2615465,12.1305598 23.79629,10.6489598 21.9252115,10.6489598 C19.9019246,10.6489598 18.4888768,12.4041598 18.4888768,14.9165599 L18.4888768,17.25096 Z" id="Fill-1" fill="#FF5C0B" mask="url(#mask-2)"></path>
                </g>
                <path d="M55.0046948,14.8519349 C55.0046948,17.6342466 53.1397886,19.2213357 49.7781872,19.2213357 L47.0932821,19.2213357 L47.0932821,23.9411765 L43.5680751,23.9411765 L43.5680751,10.3382353 L49.7781872,10.3382353 C53.1397886,10.3382353 55.0046948,11.9253244 55.0046948,14.8519349 M51.4589879,14.8105086 C51.4589879,13.615286 50.7824887,13.0176747 49.224885,13.0176747 L47.093282,13.0176747 L47.093282,16.624353 L49.224885,16.624353 C50.7824887,16.624353 51.4589879,16.0267417 51.4589879,14.8105086" id="Fill-4" fill="#FF5C0B"></path>
                <path d="M63.7183099,13.8259606 L63.3401697,16.7450972 C63.0672704,16.5830962 62.5628815,16.4411748 62.016881,16.4411748 C60.7566157,16.4411748 59.6648167,17.23149 59.6648167,18.8327848 L59.6648167,23.9411765 L56.0938967,23.9411765 L56.0938967,13.8056861 L59.244459,13.8056861 L59.3915135,15.995136 C59.8954984,14.4950187 60.9458878,13.6029412 62.5842933,13.6029412 C63.109084,13.6029412 63.4870222,13.7045086 63.7183099,13.8259606" id="Fill-6" fill="#FF5C0B"></path>
                <path d="M74.6103286,19.0439164 C74.6103286,22.4762753 72.6094015,24.4852941 69.1644184,24.4852941 C65.719237,24.4852941 63.7183099,22.4762753 63.7183099,19.0439164 C63.7183099,15.6117587 65.719237,13.6029412 69.1644184,13.6029412 C72.6094015,13.6029412 74.6103286,15.6117587 74.6103286,19.0439164 M67.2251896,19.0439166 C67.2251896,21.0945971 67.8645896,21.9527875 69.1644186,21.9527875 C70.4640491,21.9527875 71.1032507,21.0945971 71.1032507,19.0439166 C71.1032507,16.993236 70.4640491,16.1350456 69.1644186,16.1350456 C67.8645896,16.1350456 67.2251896,16.993236 67.2251896,19.0439166" id="Fill-8" fill="#FF5C0B"></path>
                <path d="M86.0469484,9.79411765 L86.0469484,24.2821687 L82.8908161,24.2821687 L82.7668245,22.3487586 C82.1684906,23.6309148 80.9926533,24.4852941 79.404767,24.4852941 C76.743411,24.4852941 75.1549296,22.5524712 75.1549296,19.235538 C75.1549296,15.8579411 76.7638448,13.9043751 79.4252009,13.9043751 C80.9311534,13.9043751 81.9623669,14.6573875 82.540267,15.8170421 L82.540267,9.79411765 L86.0469484,9.79411765 Z M82.540267,19.6018684 L82.540267,18.7878011 C82.4573414,17.2819722 81.7560448,16.4481402 80.6212735,16.4481402 C79.4252008,16.4481402 78.6824414,17.2819722 78.6824414,19.1946391 C78.6824414,21.1076973 79.4252008,21.9421164 80.6212735,21.9421164 C81.735611,21.9421164 82.4573414,21.148205 82.540267,19.6018684 L82.540267,19.6018684 Z" id="Fill-10" fill="#FF5C0B"></path>
                <path d="M87.6807512,10.9207612 C87.6807512,9.75949792 88.3409697,9.25 89.8588375,9.25 C91.3773401,9.25 92.0375587,9.75949792 92.0375587,10.9207612 C92.0375587,12.0618406 91.3773401,12.5713385 89.8588375,12.5713385 C88.3409697,12.5713385 87.6807512,12.0618406 87.6807512,10.9207612 L87.6807512,10.9207612 Z M87.9884299,23.941176 L91.7294566,23.941176 L91.7294566,13.7529817 L87.9884299,13.7529817 L87.9884299,23.941176 Z" id="Fill-12" fill="#FF5C0B"></path>
                <path d="M103.474178,13.8131222 L103.474178,23.479832 C103.474178,27.3675745 101.184202,28.8382353 97.6775207,28.8382353 C95.2226851,28.8382353 93.262824,28.1452442 92.8914443,25.7701988 L96.2538986,24.8668246 C96.3159936,26.0228202 96.8932985,26.5899047 98.0280698,26.5899047 C99.1832749,26.5899047 99.9466665,25.7910148 99.9466665,24.34117 L99.9466665,22.4079089 C99.3070681,23.3957596 98.2343919,24.0261006 96.8319971,24.0261006 C94.1500088,24.0261006 92.5821596,22.1134533 92.5821596,18.8566581 C92.5821596,15.5364044 94.170641,13.6029412 96.8319971,13.6029412 C98.584941,13.6029412 99.7195139,14.5697738 100.214885,15.9777845 L100.338282,13.8131222 L103.474178,13.8131222 Z M99.9466663,18.9195102 L99.9466663,18.7307515 C99.9466663,17.1333758 99.2453698,16.2297996 98.0485035,16.2297996 C96.8524308,16.2297996 96.109473,17.0493034 96.109473,18.8148239 C96.109473,20.6005541 96.8524308,21.42026 98.0485035,21.42026 C99.2247376,21.42026 99.9466663,20.55872 99.9466663,18.9195102 L99.9466663,18.9195102 Z" id="Fill-14" fill="#FF5C0B"></path>
                <path d="M112.132999,24.4209031 C110.970602,27.688156 109.576539,28.8382353 106.89246,28.8382353 C105.667066,28.8382353 104.716217,28.5714643 104.018779,28.0780368 L104.779621,25.7357876 C105.244783,26.1466149 105.751604,26.27012 106.596983,26.27012 C107.442159,26.27012 107.928253,26.06441 108.245067,25.2836602 L108.498477,24.6469668 L107.27288,21.8521951 L104.124452,14.1470588 L108.075584,14.1470588 L109.70294,20.003571 L110.21037,22.1812126 L110.780798,19.9209708 L112.407544,14.1470588 L116,14.1470588 L112.132999,24.4209031 Z" id="Fill-16" fill="#FF5C0B"></path>
            </g>
        </g>
    </g>
</svg>